<svg xmlns="http://www.w3.org/2000/svg" xmlns:xlink="http://www.w3.org/1999/xlink" viewBox="0,0,256,256" width="96px" height="96px" fill-rule="nonzero"><g fill="#000744" fill-rule="nonzero" stroke="none" stroke-width="1" stroke-linecap="butt" stroke-linejoin="miter" stroke-miterlimit="10" stroke-dasharray="" stroke-dashoffset="0" font-family="none" font-weight="none" font-size="none" text-anchor="none" style="mix-blend-mode: normal"><g transform="scale(10.66667,10.66667)"><path d="M9,3v1h-5c-1.105,0 -2,0.895 -2,2v6c0,1.103 0.897,2 2,2h16c1.103,0 2,-0.897 2,-2v-6c0,-1.105 -0.895,-2 -2,-2h-5v-1zM12,10c0.552,0 1,0.448 1,1c0,0.552 -0.448,1 -1,1c-0.552,0 -1,-0.448 -1,-1c0,-0.552 0.448,-1 1,-1zM2,15.44336v2.55664c0,1.105 0.895,2 2,2h16c1.105,0 2,-0.895 2,-2v-2.55664c-0.591,0.344 -1.268,0.55664 -2,0.55664h-16c-0.732,0 -1.409,-0.21264 -2,-0.55664z"></path></g></g></svg>